<mxfile host="app.diagrams.net" modified="2024-03-16T15:26:36.180Z" agent="Mozilla/5.0 (Windows NT 10.0; Win64; x64) AppleWebKit/537.36 (KHTML, like Gecko) Chrome/122.0.0.0 Safari/537.36" etag="PhBwN60I4pIJy64j_yTF" version="24.0.7" type="device">
  <diagram id="R2lEEEUBdFMjLlhIrx00" name="Page-1">
    <mxGraphModel dx="1388" dy="481" grid="1" gridSize="10" guides="1" tooltips="1" connect="1" arrows="1" fold="1" page="1" pageScale="1" pageWidth="850" pageHeight="1100" math="0" shadow="0" extFonts="Permanent Marker^https://fonts.googleapis.com/css?family=Permanent+Marker">
      <root>
        <mxCell id="0" />
        <mxCell id="1" parent="0" />
        <mxCell id="u9uhr_OKcIwBxx1G9bC1-1" value="Strong Entity" style="text;html=1;align=center;verticalAlign=middle;resizable=0;points=[];autosize=1;strokeColor=none;fillColor=none;" parent="1" vertex="1">
          <mxGeometry x="30" y="118" width="90" height="30" as="geometry" />
        </mxCell>
        <mxCell id="u9uhr_OKcIwBxx1G9bC1-2" value="PRODUK" style="whiteSpace=wrap;html=1;align=center;" parent="1" vertex="1">
          <mxGeometry x="40" y="160" width="100" height="40" as="geometry" />
        </mxCell>
        <mxCell id="u9uhr_OKcIwBxx1G9bC1-3" value="Kode_produk" style="ellipse;whiteSpace=wrap;html=1;align=center;" parent="1" vertex="1">
          <mxGeometry x="125" y="100" width="100" height="40" as="geometry" />
        </mxCell>
        <mxCell id="u9uhr_OKcIwBxx1G9bC1-4" value="PESANAN" style="shape=ext;margin=3;double=1;whiteSpace=wrap;html=1;align=center;" parent="1" vertex="1">
          <mxGeometry x="500" y="160" width="100" height="40" as="geometry" />
        </mxCell>
        <mxCell id="u9uhr_OKcIwBxx1G9bC1-6" value="" style="endArrow=none;html=1;rounded=0;exitX=0.75;exitY=0;exitDx=0;exitDy=0;entryX=0;entryY=1;entryDx=0;entryDy=0;" parent="1" source="u9uhr_OKcIwBxx1G9bC1-2" target="u9uhr_OKcIwBxx1G9bC1-3" edge="1">
          <mxGeometry width="50" height="50" relative="1" as="geometry">
            <mxPoint x="90" y="180" as="sourcePoint" />
            <mxPoint x="140" y="130" as="targetPoint" />
          </mxGeometry>
        </mxCell>
        <mxCell id="u9uhr_OKcIwBxx1G9bC1-7" value="KARYAWAN" style="whiteSpace=wrap;html=1;align=center;" parent="1" vertex="1">
          <mxGeometry x="40" y="280" width="100" height="40" as="geometry" />
        </mxCell>
        <mxCell id="u9uhr_OKcIwBxx1G9bC1-8" value="" style="endArrow=none;html=1;rounded=0;exitX=0.75;exitY=0;exitDx=0;exitDy=0;entryX=0.059;entryY=0.761;entryDx=0;entryDy=0;entryPerimeter=0;" parent="1" source="u9uhr_OKcIwBxx1G9bC1-7" target="u9uhr_OKcIwBxx1G9bC1-9" edge="1">
          <mxGeometry width="50" height="50" relative="1" as="geometry">
            <mxPoint x="90" y="266" as="sourcePoint" />
            <mxPoint x="140" y="220" as="targetPoint" />
          </mxGeometry>
        </mxCell>
        <mxCell id="u9uhr_OKcIwBxx1G9bC1-9" value="Id_karyawan" style="ellipse;whiteSpace=wrap;html=1;align=center;" parent="1" vertex="1">
          <mxGeometry x="120" y="230" width="100" height="40" as="geometry" />
        </mxCell>
        <mxCell id="u9uhr_OKcIwBxx1G9bC1-10" value="RODA" style="shape=ext;margin=3;double=1;whiteSpace=wrap;html=1;align=center;" parent="1" vertex="1">
          <mxGeometry x="500" y="280" width="100" height="40" as="geometry" />
        </mxCell>
        <mxCell id="u9uhr_OKcIwBxx1G9bC1-12" value="PELANGGAN" style="whiteSpace=wrap;html=1;align=center;" parent="1" vertex="1">
          <mxGeometry x="260" y="160" width="100" height="40" as="geometry" />
        </mxCell>
        <mxCell id="u9uhr_OKcIwBxx1G9bC1-13" value="MOBIL" style="whiteSpace=wrap;html=1;align=center;" parent="1" vertex="1">
          <mxGeometry x="260" y="280" width="100" height="40" as="geometry" />
        </mxCell>
        <mxCell id="u9uhr_OKcIwBxx1G9bC1-14" value="Memiliki" style="shape=rhombus;perimeter=rhombusPerimeter;whiteSpace=wrap;html=1;align=center;" parent="1" vertex="1">
          <mxGeometry x="380" y="160" width="90" height="40" as="geometry" />
        </mxCell>
        <mxCell id="u9uhr_OKcIwBxx1G9bC1-15" value="Memiliki" style="shape=rhombus;perimeter=rhombusPerimeter;whiteSpace=wrap;html=1;align=center;" parent="1" vertex="1">
          <mxGeometry x="390" y="280" width="90" height="40" as="geometry" />
        </mxCell>
        <mxCell id="u9uhr_OKcIwBxx1G9bC1-17" value="" style="endArrow=none;html=1;rounded=0;entryX=0;entryY=0.5;entryDx=0;entryDy=0;exitX=1;exitY=0.5;exitDx=0;exitDy=0;" parent="1" source="u9uhr_OKcIwBxx1G9bC1-12" target="u9uhr_OKcIwBxx1G9bC1-14" edge="1">
          <mxGeometry width="50" height="50" relative="1" as="geometry">
            <mxPoint x="330" y="260" as="sourcePoint" />
            <mxPoint x="380" y="210" as="targetPoint" />
          </mxGeometry>
        </mxCell>
        <mxCell id="u9uhr_OKcIwBxx1G9bC1-18" value="" style="endArrow=none;html=1;rounded=0;exitX=1;exitY=0.5;exitDx=0;exitDy=0;" parent="1" source="u9uhr_OKcIwBxx1G9bC1-14" edge="1">
          <mxGeometry width="50" height="50" relative="1" as="geometry">
            <mxPoint x="370" y="190" as="sourcePoint" />
            <mxPoint x="490" y="180" as="targetPoint" />
            <Array as="points">
              <mxPoint x="490" y="180" />
              <mxPoint x="500" y="180" />
            </Array>
          </mxGeometry>
        </mxCell>
        <mxCell id="u9uhr_OKcIwBxx1G9bC1-19" value="" style="endArrow=none;html=1;rounded=0;exitX=1;exitY=0.5;exitDx=0;exitDy=0;" parent="1" source="u9uhr_OKcIwBxx1G9bC1-15" edge="1">
          <mxGeometry width="50" height="50" relative="1" as="geometry">
            <mxPoint x="480" y="190" as="sourcePoint" />
            <mxPoint x="500" y="300" as="targetPoint" />
            <Array as="points">
              <mxPoint x="500" y="300" />
            </Array>
          </mxGeometry>
        </mxCell>
        <mxCell id="u9uhr_OKcIwBxx1G9bC1-20" value="" style="endArrow=none;html=1;rounded=0;exitX=1;exitY=0.5;exitDx=0;exitDy=0;entryX=0;entryY=0.5;entryDx=0;entryDy=0;" parent="1" source="u9uhr_OKcIwBxx1G9bC1-13" target="u9uhr_OKcIwBxx1G9bC1-15" edge="1">
          <mxGeometry width="50" height="50" relative="1" as="geometry">
            <mxPoint x="380" y="370" as="sourcePoint" />
            <mxPoint x="430" y="320" as="targetPoint" />
          </mxGeometry>
        </mxCell>
        <mxCell id="u9uhr_OKcIwBxx1G9bC1-21" value="Weak Entity" style="text;html=1;align=center;verticalAlign=middle;resizable=0;points=[];autosize=1;strokeColor=none;fillColor=none;" parent="1" vertex="1">
          <mxGeometry x="255" y="118" width="90" height="30" as="geometry" />
        </mxCell>
        <mxCell id="u9uhr_OKcIwBxx1G9bC1-22" value="Subtype Entity" style="text;html=1;align=center;verticalAlign=middle;resizable=0;points=[];autosize=1;strokeColor=none;fillColor=none;" parent="1" vertex="1">
          <mxGeometry x="770" y="130" width="100" height="30" as="geometry" />
        </mxCell>
        <mxCell id="u9uhr_OKcIwBxx1G9bC1-23" value="KARYAWAN" style="whiteSpace=wrap;html=1;align=center;" parent="1" vertex="1">
          <mxGeometry x="870" y="170" width="100" height="40" as="geometry" />
        </mxCell>
        <mxCell id="u9uhr_OKcIwBxx1G9bC1-25" value="KARYAWAN_TETAP" style="whiteSpace=wrap;html=1;align=center;" parent="1" vertex="1">
          <mxGeometry x="760" y="360" width="120" height="40" as="geometry" />
        </mxCell>
        <mxCell id="u9uhr_OKcIwBxx1G9bC1-26" value="KARYAWAN_KONTRAK" style="whiteSpace=wrap;html=1;align=center;" parent="1" vertex="1">
          <mxGeometry x="960" y="360" width="140" height="40" as="geometry" />
        </mxCell>
        <mxCell id="u9uhr_OKcIwBxx1G9bC1-27" value="Tanggal_kontak_berakhir" style="ellipse;whiteSpace=wrap;html=1;align=center;" parent="1" vertex="1">
          <mxGeometry x="1120" y="340" width="160" height="40" as="geometry" />
        </mxCell>
        <mxCell id="u9uhr_OKcIwBxx1G9bC1-28" value="Jabatan" style="ellipse;whiteSpace=wrap;html=1;align=center;" parent="1" vertex="1">
          <mxGeometry x="660" y="320" width="100" height="40" as="geometry" />
        </mxCell>
        <mxCell id="u9uhr_OKcIwBxx1G9bC1-32" value="" style="endArrow=none;html=1;rounded=0;exitX=0;exitY=0.5;exitDx=0;exitDy=0;entryX=0.5;entryY=1;entryDx=0;entryDy=0;" parent="1" source="u9uhr_OKcIwBxx1G9bC1-35" target="u9uhr_OKcIwBxx1G9bC1-23" edge="1">
          <mxGeometry width="50" height="50" relative="1" as="geometry">
            <mxPoint x="910" y="250" as="sourcePoint" />
            <mxPoint x="880" y="200" as="targetPoint" />
          </mxGeometry>
        </mxCell>
        <mxCell id="u9uhr_OKcIwBxx1G9bC1-33" value="" style="endArrow=none;html=1;rounded=0;exitX=0.5;exitY=0;exitDx=0;exitDy=0;entryX=0;entryY=0;entryDx=0;entryDy=0;" parent="1" target="u9uhr_OKcIwBxx1G9bC1-26" edge="1">
          <mxGeometry width="50" height="50" relative="1" as="geometry">
            <mxPoint x="930" y="280" as="sourcePoint" />
            <mxPoint x="910" y="310" as="targetPoint" />
          </mxGeometry>
        </mxCell>
        <mxCell id="u9uhr_OKcIwBxx1G9bC1-34" value="" style="endArrow=none;html=1;rounded=0;entryX=0.5;entryY=1;entryDx=0;entryDy=0;exitX=1;exitY=0;exitDx=0;exitDy=0;" parent="1" source="u9uhr_OKcIwBxx1G9bC1-25" target="u9uhr_OKcIwBxx1G9bC1-35" edge="1">
          <mxGeometry width="50" height="50" relative="1" as="geometry">
            <mxPoint x="790" y="350" as="sourcePoint" />
            <mxPoint x="890" y="280" as="targetPoint" />
          </mxGeometry>
        </mxCell>
        <mxCell id="u9uhr_OKcIwBxx1G9bC1-35" value="ISA" style="triangle;whiteSpace=wrap;html=1;dashed=0;direction=south;" parent="1" vertex="1">
          <mxGeometry x="890" y="247" width="60" height="60" as="geometry" />
        </mxCell>
        <mxCell id="u9uhr_OKcIwBxx1G9bC1-39" value="" style="endArrow=none;html=1;rounded=0;exitX=1;exitY=1;exitDx=0;exitDy=0;entryX=0.042;entryY=0.714;entryDx=0;entryDy=0;entryPerimeter=0;" parent="1" source="u9uhr_OKcIwBxx1G9bC1-26" target="u9uhr_OKcIwBxx1G9bC1-27" edge="1">
          <mxGeometry width="50" height="50" relative="1" as="geometry">
            <mxPoint x="1070" y="410" as="sourcePoint" />
            <mxPoint x="1120" y="360" as="targetPoint" />
          </mxGeometry>
        </mxCell>
        <mxCell id="u9uhr_OKcIwBxx1G9bC1-40" value="" style="endArrow=none;html=1;rounded=0;exitX=0;exitY=0;exitDx=0;exitDy=0;entryX=0.96;entryY=0.679;entryDx=0;entryDy=0;entryPerimeter=0;" parent="1" source="u9uhr_OKcIwBxx1G9bC1-25" target="u9uhr_OKcIwBxx1G9bC1-28" edge="1">
          <mxGeometry width="50" height="50" relative="1" as="geometry">
            <mxPoint x="790" y="365" as="sourcePoint" />
            <mxPoint x="840" y="315" as="targetPoint" />
          </mxGeometry>
        </mxCell>
        <mxCell id="u9uhr_OKcIwBxx1G9bC1-43" value="Nama" style="ellipse;whiteSpace=wrap;html=1;align=center;" parent="1" vertex="1">
          <mxGeometry x="990" y="148" width="100" height="40" as="geometry" />
        </mxCell>
        <mxCell id="u9uhr_OKcIwBxx1G9bC1-44" value="" style="endArrow=none;html=1;rounded=0;exitX=1;exitY=0;exitDx=0;exitDy=0;entryX=0.046;entryY=0.371;entryDx=0;entryDy=0;entryPerimeter=0;" parent="1" source="u9uhr_OKcIwBxx1G9bC1-23" target="u9uhr_OKcIwBxx1G9bC1-43" edge="1">
          <mxGeometry width="50" height="50" relative="1" as="geometry">
            <mxPoint x="930" y="200" as="sourcePoint" />
            <mxPoint x="980" y="150" as="targetPoint" />
          </mxGeometry>
        </mxCell>
        <mxCell id="u9uhr_OKcIwBxx1G9bC1-45" value="Alamat" style="ellipse;whiteSpace=wrap;html=1;align=center;" parent="1" vertex="1">
          <mxGeometry x="1000" y="200" width="100" height="40" as="geometry" />
        </mxCell>
        <mxCell id="u9uhr_OKcIwBxx1G9bC1-46" value="" style="endArrow=none;html=1;rounded=0;exitX=1;exitY=0;exitDx=0;exitDy=0;entryX=0.003;entryY=0.304;entryDx=0;entryDy=0;entryPerimeter=0;" parent="1" source="u9uhr_OKcIwBxx1G9bC1-23" target="u9uhr_OKcIwBxx1G9bC1-45" edge="1">
          <mxGeometry width="50" height="50" relative="1" as="geometry">
            <mxPoint x="950" y="300" as="sourcePoint" />
            <mxPoint x="1000" y="250" as="targetPoint" />
          </mxGeometry>
        </mxCell>
        <mxCell id="u9uhr_OKcIwBxx1G9bC1-47" value="Tanggal_Masuk_kerja" style="ellipse;whiteSpace=wrap;html=1;align=center;" parent="1" vertex="1">
          <mxGeometry x="620" y="370" width="130" height="40" as="geometry" />
        </mxCell>
        <mxCell id="u9uhr_OKcIwBxx1G9bC1-48" value="" style="endArrow=none;html=1;rounded=0;exitX=1;exitY=0.5;exitDx=0;exitDy=0;entryX=0;entryY=0;entryDx=0;entryDy=0;" parent="1" source="u9uhr_OKcIwBxx1G9bC1-47" target="u9uhr_OKcIwBxx1G9bC1-25" edge="1">
          <mxGeometry width="50" height="50" relative="1" as="geometry">
            <mxPoint x="720" y="480" as="sourcePoint" />
            <mxPoint x="770" y="430" as="targetPoint" />
          </mxGeometry>
        </mxCell>
        <mxCell id="u9uhr_OKcIwBxx1G9bC1-64" value="Subtype Entity" style="text;html=1;align=center;verticalAlign=middle;resizable=0;points=[];autosize=1;strokeColor=none;fillColor=none;" parent="1" vertex="1">
          <mxGeometry x="1480" y="142" width="100" height="30" as="geometry" />
        </mxCell>
        <mxCell id="u9uhr_OKcIwBxx1G9bC1-65" value="KENDARAAN" style="whiteSpace=wrap;html=1;align=center;" parent="1" vertex="1">
          <mxGeometry x="1580" y="182" width="100" height="40" as="geometry" />
        </mxCell>
        <mxCell id="u9uhr_OKcIwBxx1G9bC1-66" value="MOBIL" style="whiteSpace=wrap;html=1;align=center;" parent="1" vertex="1">
          <mxGeometry x="1470" y="372" width="120" height="40" as="geometry" />
        </mxCell>
        <mxCell id="u9uhr_OKcIwBxx1G9bC1-67" value="MOTOR" style="whiteSpace=wrap;html=1;align=center;" parent="1" vertex="1">
          <mxGeometry x="1670" y="372" width="140" height="40" as="geometry" />
        </mxCell>
        <mxCell id="u9uhr_OKcIwBxx1G9bC1-68" value="" style="endArrow=none;html=1;rounded=0;exitX=0;exitY=0.5;exitDx=0;exitDy=0;entryX=0.5;entryY=1;entryDx=0;entryDy=0;" parent="1" source="u9uhr_OKcIwBxx1G9bC1-71" target="u9uhr_OKcIwBxx1G9bC1-65" edge="1">
          <mxGeometry width="50" height="50" relative="1" as="geometry">
            <mxPoint x="1620" y="262" as="sourcePoint" />
            <mxPoint x="1590" y="212" as="targetPoint" />
          </mxGeometry>
        </mxCell>
        <mxCell id="u9uhr_OKcIwBxx1G9bC1-69" value="" style="endArrow=none;html=1;rounded=0;exitX=0.5;exitY=0;exitDx=0;exitDy=0;entryX=0;entryY=0;entryDx=0;entryDy=0;" parent="1" target="u9uhr_OKcIwBxx1G9bC1-67" edge="1">
          <mxGeometry width="50" height="50" relative="1" as="geometry">
            <mxPoint x="1640" y="292" as="sourcePoint" />
            <mxPoint x="1620" y="322" as="targetPoint" />
          </mxGeometry>
        </mxCell>
        <mxCell id="u9uhr_OKcIwBxx1G9bC1-70" value="" style="endArrow=none;html=1;rounded=0;entryX=0.5;entryY=1;entryDx=0;entryDy=0;exitX=1;exitY=0;exitDx=0;exitDy=0;" parent="1" source="u9uhr_OKcIwBxx1G9bC1-66" target="u9uhr_OKcIwBxx1G9bC1-71" edge="1">
          <mxGeometry width="50" height="50" relative="1" as="geometry">
            <mxPoint x="1500" y="362" as="sourcePoint" />
            <mxPoint x="1600" y="292" as="targetPoint" />
          </mxGeometry>
        </mxCell>
        <mxCell id="u9uhr_OKcIwBxx1G9bC1-71" value="ISA" style="triangle;whiteSpace=wrap;html=1;dashed=0;direction=south;" parent="1" vertex="1">
          <mxGeometry x="1600" y="259" width="60" height="60" as="geometry" />
        </mxCell>
        <mxCell id="u9uhr_OKcIwBxx1G9bC1-72" value="" style="endArrow=none;html=1;rounded=0;exitX=1;exitY=1;exitDx=0;exitDy=0;entryX=0;entryY=0.5;entryDx=0;entryDy=0;" parent="1" source="u9uhr_OKcIwBxx1G9bC1-67" target="u9uhr_OKcIwBxx1G9bC1-79" edge="1">
          <mxGeometry width="50" height="50" relative="1" as="geometry">
            <mxPoint x="1780" y="422" as="sourcePoint" />
            <mxPoint x="1837" y="381" as="targetPoint" />
          </mxGeometry>
        </mxCell>
        <mxCell id="u9uhr_OKcIwBxx1G9bC1-73" value="" style="endArrow=none;html=1;rounded=0;exitX=0;exitY=0;exitDx=0;exitDy=0;entryX=0.964;entryY=0.635;entryDx=0;entryDy=0;entryPerimeter=0;" parent="1" source="u9uhr_OKcIwBxx1G9bC1-66" target="u9uhr_OKcIwBxx1G9bC1-80" edge="1">
          <mxGeometry width="50" height="50" relative="1" as="geometry">
            <mxPoint x="1500" y="377" as="sourcePoint" />
            <mxPoint x="1466" y="359" as="targetPoint" />
          </mxGeometry>
        </mxCell>
        <mxCell id="u9uhr_OKcIwBxx1G9bC1-74" value="Merek" style="ellipse;whiteSpace=wrap;html=1;align=center;" parent="1" vertex="1">
          <mxGeometry x="1700" y="160" width="100" height="40" as="geometry" />
        </mxCell>
        <mxCell id="u9uhr_OKcIwBxx1G9bC1-75" value="" style="endArrow=none;html=1;rounded=0;exitX=1;exitY=0;exitDx=0;exitDy=0;entryX=0.046;entryY=0.371;entryDx=0;entryDy=0;entryPerimeter=0;" parent="1" source="u9uhr_OKcIwBxx1G9bC1-65" target="u9uhr_OKcIwBxx1G9bC1-74" edge="1">
          <mxGeometry width="50" height="50" relative="1" as="geometry">
            <mxPoint x="1640" y="212" as="sourcePoint" />
            <mxPoint x="1690" y="162" as="targetPoint" />
          </mxGeometry>
        </mxCell>
        <mxCell id="u9uhr_OKcIwBxx1G9bC1-76" value="Tahun_produksi" style="ellipse;whiteSpace=wrap;html=1;align=center;" parent="1" vertex="1">
          <mxGeometry x="1710" y="212" width="100" height="40" as="geometry" />
        </mxCell>
        <mxCell id="u9uhr_OKcIwBxx1G9bC1-77" value="" style="endArrow=none;html=1;rounded=0;exitX=1;exitY=0;exitDx=0;exitDy=0;entryX=0.003;entryY=0.304;entryDx=0;entryDy=0;entryPerimeter=0;" parent="1" source="u9uhr_OKcIwBxx1G9bC1-65" target="u9uhr_OKcIwBxx1G9bC1-76" edge="1">
          <mxGeometry width="50" height="50" relative="1" as="geometry">
            <mxPoint x="1660" y="312" as="sourcePoint" />
            <mxPoint x="1710" y="262" as="targetPoint" />
          </mxGeometry>
        </mxCell>
        <mxCell id="u9uhr_OKcIwBxx1G9bC1-79" value="Tipe_kopling" style="ellipse;whiteSpace=wrap;html=1;align=center;" parent="1" vertex="1">
          <mxGeometry x="1840" y="360" width="110" height="40" as="geometry" />
        </mxCell>
        <mxCell id="u9uhr_OKcIwBxx1G9bC1-80" value="Jumlah_pintu" style="ellipse;whiteSpace=wrap;html=1;align=center;" parent="1" vertex="1">
          <mxGeometry x="1340" y="332" width="110" height="40" as="geometry" />
        </mxCell>
        <mxCell id="h_sFeL7b-_U_BaMvyaqJ-2" value="Subtype Entity Bottom-up" style="text;html=1;align=center;verticalAlign=middle;resizable=0;points=[];autosize=1;strokeColor=none;fillColor=none;" parent="1" vertex="1">
          <mxGeometry x="1454" y="540" width="160" height="30" as="geometry" />
        </mxCell>
        <mxCell id="h_sFeL7b-_U_BaMvyaqJ-3" value="HEWAN" style="whiteSpace=wrap;html=1;align=center;" parent="1" vertex="1">
          <mxGeometry x="1584" y="580" width="100" height="40" as="geometry" />
        </mxCell>
        <mxCell id="h_sFeL7b-_U_BaMvyaqJ-4" value="Kucing" style="whiteSpace=wrap;html=1;align=center;" parent="1" vertex="1">
          <mxGeometry x="1474" y="770" width="120" height="40" as="geometry" />
        </mxCell>
        <mxCell id="h_sFeL7b-_U_BaMvyaqJ-5" value="Burung" style="whiteSpace=wrap;html=1;align=center;" parent="1" vertex="1">
          <mxGeometry x="1674" y="770" width="140" height="40" as="geometry" />
        </mxCell>
        <mxCell id="h_sFeL7b-_U_BaMvyaqJ-6" value="" style="endArrow=none;html=1;rounded=0;exitX=0;exitY=0.5;exitDx=0;exitDy=0;entryX=0.5;entryY=1;entryDx=0;entryDy=0;" parent="1" source="h_sFeL7b-_U_BaMvyaqJ-9" target="h_sFeL7b-_U_BaMvyaqJ-3" edge="1">
          <mxGeometry width="50" height="50" relative="1" as="geometry">
            <mxPoint x="1624" y="660" as="sourcePoint" />
            <mxPoint x="1594" y="610" as="targetPoint" />
          </mxGeometry>
        </mxCell>
        <mxCell id="h_sFeL7b-_U_BaMvyaqJ-7" value="" style="endArrow=none;html=1;rounded=0;exitX=0.5;exitY=0;exitDx=0;exitDy=0;entryX=0;entryY=0;entryDx=0;entryDy=0;" parent="1" target="h_sFeL7b-_U_BaMvyaqJ-5" edge="1">
          <mxGeometry width="50" height="50" relative="1" as="geometry">
            <mxPoint x="1644" y="690" as="sourcePoint" />
            <mxPoint x="1624" y="720" as="targetPoint" />
          </mxGeometry>
        </mxCell>
        <mxCell id="h_sFeL7b-_U_BaMvyaqJ-8" value="" style="endArrow=none;html=1;rounded=0;entryX=0.5;entryY=1;entryDx=0;entryDy=0;exitX=1;exitY=0;exitDx=0;exitDy=0;" parent="1" source="h_sFeL7b-_U_BaMvyaqJ-4" target="h_sFeL7b-_U_BaMvyaqJ-9" edge="1">
          <mxGeometry width="50" height="50" relative="1" as="geometry">
            <mxPoint x="1504" y="760" as="sourcePoint" />
            <mxPoint x="1604" y="690" as="targetPoint" />
          </mxGeometry>
        </mxCell>
        <mxCell id="h_sFeL7b-_U_BaMvyaqJ-9" value="ISA" style="triangle;whiteSpace=wrap;html=1;dashed=0;direction=south;" parent="1" vertex="1">
          <mxGeometry x="1604" y="657" width="60" height="60" as="geometry" />
        </mxCell>
        <mxCell id="h_sFeL7b-_U_BaMvyaqJ-16" value="Motor" style="whiteSpace=wrap;html=1;align=center;" parent="1" vertex="1">
          <mxGeometry x="1900" y="760" width="120" height="40" as="geometry" />
        </mxCell>
        <mxCell id="h_sFeL7b-_U_BaMvyaqJ-17" value="Truk" style="whiteSpace=wrap;html=1;align=center;" parent="1" vertex="1">
          <mxGeometry x="2100" y="760" width="140" height="40" as="geometry" />
        </mxCell>
        <mxCell id="h_sFeL7b-_U_BaMvyaqJ-18" value="" style="endArrow=none;html=1;rounded=0;exitX=0;exitY=0.5;exitDx=0;exitDy=0;entryX=0.5;entryY=1;entryDx=0;entryDy=0;" parent="1" source="h_sFeL7b-_U_BaMvyaqJ-21" target="h_sFeL7b-_U_BaMvyaqJ-22" edge="1">
          <mxGeometry width="50" height="50" relative="1" as="geometry">
            <mxPoint x="2050" y="650" as="sourcePoint" />
            <mxPoint x="2060" y="610" as="targetPoint" />
          </mxGeometry>
        </mxCell>
        <mxCell id="h_sFeL7b-_U_BaMvyaqJ-19" value="" style="endArrow=none;html=1;rounded=0;exitX=0.5;exitY=0;exitDx=0;exitDy=0;entryX=0;entryY=0;entryDx=0;entryDy=0;" parent="1" target="h_sFeL7b-_U_BaMvyaqJ-17" edge="1">
          <mxGeometry width="50" height="50" relative="1" as="geometry">
            <mxPoint x="2070" y="680" as="sourcePoint" />
            <mxPoint x="2050" y="710" as="targetPoint" />
          </mxGeometry>
        </mxCell>
        <mxCell id="h_sFeL7b-_U_BaMvyaqJ-20" value="" style="endArrow=none;html=1;rounded=0;entryX=0.5;entryY=1;entryDx=0;entryDy=0;exitX=1;exitY=0;exitDx=0;exitDy=0;" parent="1" source="h_sFeL7b-_U_BaMvyaqJ-16" target="h_sFeL7b-_U_BaMvyaqJ-21" edge="1">
          <mxGeometry width="50" height="50" relative="1" as="geometry">
            <mxPoint x="1930" y="750" as="sourcePoint" />
            <mxPoint x="2030" y="680" as="targetPoint" />
          </mxGeometry>
        </mxCell>
        <mxCell id="h_sFeL7b-_U_BaMvyaqJ-21" value="ISA" style="triangle;whiteSpace=wrap;html=1;dashed=0;direction=south;" parent="1" vertex="1">
          <mxGeometry x="2030" y="647" width="60" height="60" as="geometry" />
        </mxCell>
        <mxCell id="h_sFeL7b-_U_BaMvyaqJ-22" value="KENDARAAN" style="whiteSpace=wrap;html=1;align=center;" parent="1" vertex="1">
          <mxGeometry x="2010" y="570" width="100" height="40" as="geometry" />
        </mxCell>
        <mxCell id="h_sFeL7b-_U_BaMvyaqJ-24" value="Key atribut" style="text;html=1;align=center;verticalAlign=middle;resizable=0;points=[];autosize=1;strokeColor=none;fillColor=none;" parent="1" vertex="1">
          <mxGeometry x="30" y="698" width="80" height="30" as="geometry" />
        </mxCell>
        <mxCell id="h_sFeL7b-_U_BaMvyaqJ-25" value="Id_buku" style="ellipse;whiteSpace=wrap;html=1;align=center;fontStyle=4;" parent="1" vertex="1">
          <mxGeometry x="40" y="730" width="100" height="40" as="geometry" />
        </mxCell>
        <mxCell id="h_sFeL7b-_U_BaMvyaqJ-26" value="Email_pelanggan" style="ellipse;whiteSpace=wrap;html=1;align=center;fontStyle=4;" parent="1" vertex="1">
          <mxGeometry x="40" y="800" width="100" height="40" as="geometry" />
        </mxCell>
        <mxCell id="h_sFeL7b-_U_BaMvyaqJ-27" value="Nama_menu" style="ellipse;whiteSpace=wrap;html=1;align=center;" parent="1" vertex="1">
          <mxGeometry x="220" y="728" width="100" height="40" as="geometry" />
        </mxCell>
        <mxCell id="h_sFeL7b-_U_BaMvyaqJ-28" value="Alamat" style="ellipse;whiteSpace=wrap;html=1;align=center;" parent="1" vertex="1">
          <mxGeometry x="225" y="800" width="100" height="40" as="geometry" />
        </mxCell>
        <mxCell id="h_sFeL7b-_U_BaMvyaqJ-29" value="Atribut deskriptif" style="text;html=1;align=center;verticalAlign=middle;resizable=0;points=[];autosize=1;strokeColor=none;fillColor=none;" parent="1" vertex="1">
          <mxGeometry x="210" y="698" width="110" height="30" as="geometry" />
        </mxCell>
        <mxCell id="h_sFeL7b-_U_BaMvyaqJ-30" value="Nama_pengguna" style="ellipse;whiteSpace=wrap;html=1;align=center;" parent="1" vertex="1">
          <mxGeometry x="390" y="728" width="100" height="40" as="geometry" />
        </mxCell>
        <mxCell id="h_sFeL7b-_U_BaMvyaqJ-31" value="Atribut simple" style="text;html=1;align=center;verticalAlign=middle;resizable=0;points=[];autosize=1;strokeColor=none;fillColor=none;" parent="1" vertex="1">
          <mxGeometry x="380" y="698" width="100" height="30" as="geometry" />
        </mxCell>
        <mxCell id="h_sFeL7b-_U_BaMvyaqJ-32" value="Composite atribut" style="text;html=1;align=center;verticalAlign=middle;resizable=0;points=[];autosize=1;strokeColor=none;fillColor=none;" parent="1" vertex="1">
          <mxGeometry x="5" y="920" width="120" height="30" as="geometry" />
        </mxCell>
        <mxCell id="h_sFeL7b-_U_BaMvyaqJ-33" value="Single-valued atribut" style="text;html=1;align=center;verticalAlign=middle;resizable=0;points=[];autosize=1;strokeColor=none;fillColor=none;" parent="1" vertex="1">
          <mxGeometry x="225" y="898" width="130" height="30" as="geometry" />
        </mxCell>
        <mxCell id="h_sFeL7b-_U_BaMvyaqJ-34" value="Multi-valued atribut" style="text;html=1;align=center;verticalAlign=middle;resizable=0;points=[];autosize=1;strokeColor=none;fillColor=none;" parent="1" vertex="1">
          <mxGeometry x="410" y="898" width="120" height="30" as="geometry" />
        </mxCell>
        <mxCell id="h_sFeL7b-_U_BaMvyaqJ-35" value="Null values atribut" style="text;html=1;align=center;verticalAlign=middle;resizable=0;points=[];autosize=1;strokeColor=none;fillColor=none;" parent="1" vertex="1">
          <mxGeometry x="270" y="1140" width="120" height="30" as="geometry" />
        </mxCell>
        <mxCell id="h_sFeL7b-_U_BaMvyaqJ-36" value="Mandatory atribut" style="text;html=1;align=center;verticalAlign=middle;resizable=0;points=[];autosize=1;strokeColor=none;fillColor=none;" parent="1" vertex="1">
          <mxGeometry x="450" y="1198" width="120" height="30" as="geometry" />
        </mxCell>
        <mxCell id="h_sFeL7b-_U_BaMvyaqJ-37" value="Derivated atribut" style="text;html=1;align=center;verticalAlign=middle;resizable=0;points=[];autosize=1;strokeColor=none;fillColor=none;" parent="1" vertex="1">
          <mxGeometry x="570" y="1058" width="110" height="30" as="geometry" />
        </mxCell>
        <mxCell id="h_sFeL7b-_U_BaMvyaqJ-38" value="Nomor_telepon" style="ellipse;whiteSpace=wrap;html=1;align=center;" parent="1" vertex="1">
          <mxGeometry x="390" y="800" width="100" height="40" as="geometry" />
        </mxCell>
        <mxCell id="h_sFeL7b-_U_BaMvyaqJ-39" value="Harga_produk" style="ellipse;whiteSpace=wrap;html=1;align=center;dashed=1;" parent="1" vertex="1">
          <mxGeometry x="570" y="1100" width="100" height="40" as="geometry" />
        </mxCell>
        <mxCell id="h_sFeL7b-_U_BaMvyaqJ-40" value="Materi" style="ellipse;shape=doubleEllipse;margin=3;whiteSpace=wrap;html=1;align=center;" parent="1" vertex="1">
          <mxGeometry x="410" y="928" width="100" height="40" as="geometry" />
        </mxCell>
        <mxCell id="h_sFeL7b-_U_BaMvyaqJ-41" value="Genre" style="ellipse;shape=doubleEllipse;margin=3;whiteSpace=wrap;html=1;align=center;" parent="1" vertex="1">
          <mxGeometry x="410" y="1018" width="100" height="40" as="geometry" />
        </mxCell>
        <mxCell id="h_sFeL7b-_U_BaMvyaqJ-42" value="Nama_orang_tua" style="ellipse;whiteSpace=wrap;html=1;align=center;" parent="1" vertex="1">
          <mxGeometry x="25" y="1018" width="100" height="40" as="geometry" />
        </mxCell>
        <mxCell id="h_sFeL7b-_U_BaMvyaqJ-43" value="Nama_ayah" style="ellipse;whiteSpace=wrap;html=1;align=center;" parent="1" vertex="1">
          <mxGeometry x="90" y="960" width="100" height="40" as="geometry" />
        </mxCell>
        <mxCell id="h_sFeL7b-_U_BaMvyaqJ-44" value="Nama_ibu" style="ellipse;whiteSpace=wrap;html=1;align=center;" parent="1" vertex="1">
          <mxGeometry x="-60" y="960" width="100" height="40" as="geometry" />
        </mxCell>
        <mxCell id="h_sFeL7b-_U_BaMvyaqJ-48" value="Koordinat_geografis" style="ellipse;whiteSpace=wrap;html=1;align=center;" parent="1" vertex="1">
          <mxGeometry x="20" y="1198" width="120" height="40" as="geometry" />
        </mxCell>
        <mxCell id="h_sFeL7b-_U_BaMvyaqJ-49" value="Garis_lintang" style="ellipse;whiteSpace=wrap;html=1;align=center;" parent="1" vertex="1">
          <mxGeometry x="95" y="1140" width="100" height="40" as="geometry" />
        </mxCell>
        <mxCell id="h_sFeL7b-_U_BaMvyaqJ-50" value="Garis_bujur" style="ellipse;whiteSpace=wrap;html=1;align=center;" parent="1" vertex="1">
          <mxGeometry x="-55" y="1140" width="100" height="40" as="geometry" />
        </mxCell>
        <mxCell id="h_sFeL7b-_U_BaMvyaqJ-51" value="" style="endArrow=none;html=1;rounded=0;exitX=1;exitY=0;exitDx=0;exitDy=0;entryX=0.5;entryY=1;entryDx=0;entryDy=0;" parent="1" source="h_sFeL7b-_U_BaMvyaqJ-42" target="h_sFeL7b-_U_BaMvyaqJ-43" edge="1">
          <mxGeometry width="50" height="50" relative="1" as="geometry">
            <mxPoint x="130" y="1050" as="sourcePoint" />
            <mxPoint x="180" y="1000" as="targetPoint" />
          </mxGeometry>
        </mxCell>
        <mxCell id="h_sFeL7b-_U_BaMvyaqJ-52" value="" style="endArrow=none;html=1;rounded=0;exitX=0.663;exitY=1.018;exitDx=0;exitDy=0;exitPerimeter=0;entryX=0.04;entryY=0.258;entryDx=0;entryDy=0;entryPerimeter=0;" parent="1" source="h_sFeL7b-_U_BaMvyaqJ-44" target="h_sFeL7b-_U_BaMvyaqJ-42" edge="1">
          <mxGeometry width="50" height="50" relative="1" as="geometry">
            <mxPoint x="-10" y="1080" as="sourcePoint" />
            <mxPoint x="40" y="1030" as="targetPoint" />
          </mxGeometry>
        </mxCell>
        <mxCell id="h_sFeL7b-_U_BaMvyaqJ-53" value="" style="endArrow=none;html=1;rounded=0;exitX=1;exitY=0;exitDx=0;exitDy=0;entryX=0.368;entryY=1.018;entryDx=0;entryDy=0;entryPerimeter=0;" parent="1" source="h_sFeL7b-_U_BaMvyaqJ-48" target="h_sFeL7b-_U_BaMvyaqJ-49" edge="1">
          <mxGeometry width="50" height="50" relative="1" as="geometry">
            <mxPoint x="110" y="1250" as="sourcePoint" />
            <mxPoint x="160" y="1200" as="targetPoint" />
          </mxGeometry>
        </mxCell>
        <mxCell id="h_sFeL7b-_U_BaMvyaqJ-54" value="" style="endArrow=none;html=1;rounded=0;exitX=0.668;exitY=1.001;exitDx=0;exitDy=0;exitPerimeter=0;entryX=0;entryY=0.3;entryDx=0;entryDy=0;entryPerimeter=0;" parent="1" source="h_sFeL7b-_U_BaMvyaqJ-50" target="h_sFeL7b-_U_BaMvyaqJ-48" edge="1">
          <mxGeometry width="50" height="50" relative="1" as="geometry">
            <mxPoint x="20" y="1250" as="sourcePoint" />
            <mxPoint x="70" y="1200" as="targetPoint" />
          </mxGeometry>
        </mxCell>
        <mxCell id="h_sFeL7b-_U_BaMvyaqJ-55" value="Harga" style="ellipse;whiteSpace=wrap;html=1;align=center;" parent="1" vertex="1">
          <mxGeometry x="240" y="940" width="100" height="40" as="geometry" />
        </mxCell>
        <mxCell id="h_sFeL7b-_U_BaMvyaqJ-56" value="Tanggal_lahir" style="ellipse;whiteSpace=wrap;html=1;align=center;" parent="1" vertex="1">
          <mxGeometry x="240" y="1018" width="100" height="40" as="geometry" />
        </mxCell>
        <mxCell id="h_sFeL7b-_U_BaMvyaqJ-57" value="Tanggal_kedaluarsa" style="ellipse;whiteSpace=wrap;html=1;align=center;" parent="1" vertex="1">
          <mxGeometry x="260" y="1198" width="120" height="40" as="geometry" />
        </mxCell>
        <mxCell id="h_sFeL7b-_U_BaMvyaqJ-58" value="Nomor_kamar" style="ellipse;whiteSpace=wrap;html=1;align=center;" parent="1" vertex="1">
          <mxGeometry x="270" y="1280" width="100" height="40" as="geometry" />
        </mxCell>
        <mxCell id="h_sFeL7b-_U_BaMvyaqJ-59" value="Nama_pelanggan" style="ellipse;whiteSpace=wrap;html=1;align=center;" parent="1" vertex="1">
          <mxGeometry x="460" y="1250" width="100" height="40" as="geometry" />
        </mxCell>
        <mxCell id="h_sFeL7b-_U_BaMvyaqJ-60" value="Tanggal_transaksi" style="ellipse;whiteSpace=wrap;html=1;align=center;" parent="1" vertex="1">
          <mxGeometry x="460" y="1320" width="100" height="40" as="geometry" />
        </mxCell>
        <mxCell id="h_sFeL7b-_U_BaMvyaqJ-61" value="Jumlah" style="ellipse;whiteSpace=wrap;html=1;align=center;dashed=1;" parent="1" vertex="1">
          <mxGeometry x="720" y="1100" width="100" height="40" as="geometry" />
        </mxCell>
        <mxCell id="h_sFeL7b-_U_BaMvyaqJ-63" value="" style="endArrow=none;html=1;rounded=0;entryX=0.5;entryY=1;entryDx=0;entryDy=0;exitX=0.5;exitY=0;exitDx=0;exitDy=0;" parent="1" source="h_sFeL7b-_U_BaMvyaqJ-67" target="h_sFeL7b-_U_BaMvyaqJ-61" edge="1">
          <mxGeometry width="50" height="50" relative="1" as="geometry">
            <mxPoint x="700" y="1170" as="sourcePoint" />
            <mxPoint x="780" y="1150" as="targetPoint" />
          </mxGeometry>
        </mxCell>
        <mxCell id="h_sFeL7b-_U_BaMvyaqJ-64" value="" style="endArrow=none;html=1;rounded=0;exitX=0.625;exitY=1.122;exitDx=0;exitDy=0;exitPerimeter=0;entryX=0.5;entryY=0;entryDx=0;entryDy=0;" parent="1" source="h_sFeL7b-_U_BaMvyaqJ-39" target="h_sFeL7b-_U_BaMvyaqJ-67" edge="1">
          <mxGeometry width="50" height="50" relative="1" as="geometry">
            <mxPoint x="750" y="1250" as="sourcePoint" />
            <mxPoint x="700" y="1170" as="targetPoint" />
          </mxGeometry>
        </mxCell>
        <mxCell id="h_sFeL7b-_U_BaMvyaqJ-67" value="Total_harga" style="whiteSpace=wrap;html=1;align=center;" parent="1" vertex="1">
          <mxGeometry x="650" y="1170" width="100" height="40" as="geometry" />
        </mxCell>
        <mxCell id="h_sFeL7b-_U_BaMvyaqJ-73" value="Gaji_pokok" style="ellipse;whiteSpace=wrap;html=1;align=center;dashed=1;" parent="1" vertex="1">
          <mxGeometry x="850" y="1105" width="100" height="40" as="geometry" />
        </mxCell>
        <mxCell id="h_sFeL7b-_U_BaMvyaqJ-74" value="Tunjangan" style="ellipse;whiteSpace=wrap;html=1;align=center;dashed=1;" parent="1" vertex="1">
          <mxGeometry x="1000" y="1105" width="100" height="40" as="geometry" />
        </mxCell>
        <mxCell id="h_sFeL7b-_U_BaMvyaqJ-75" value="" style="endArrow=none;html=1;rounded=0;entryX=0.5;entryY=1;entryDx=0;entryDy=0;exitX=0.5;exitY=0;exitDx=0;exitDy=0;" parent="1" source="h_sFeL7b-_U_BaMvyaqJ-77" target="h_sFeL7b-_U_BaMvyaqJ-74" edge="1">
          <mxGeometry width="50" height="50" relative="1" as="geometry">
            <mxPoint x="980" y="1175" as="sourcePoint" />
            <mxPoint x="1060" y="1155" as="targetPoint" />
          </mxGeometry>
        </mxCell>
        <mxCell id="h_sFeL7b-_U_BaMvyaqJ-76" value="" style="endArrow=none;html=1;rounded=0;exitX=0.625;exitY=1.122;exitDx=0;exitDy=0;exitPerimeter=0;entryX=0.5;entryY=0;entryDx=0;entryDy=0;" parent="1" source="h_sFeL7b-_U_BaMvyaqJ-73" target="h_sFeL7b-_U_BaMvyaqJ-77" edge="1">
          <mxGeometry width="50" height="50" relative="1" as="geometry">
            <mxPoint x="1030" y="1255" as="sourcePoint" />
            <mxPoint x="980" y="1175" as="targetPoint" />
          </mxGeometry>
        </mxCell>
        <mxCell id="h_sFeL7b-_U_BaMvyaqJ-77" value="Total_gaji" style="whiteSpace=wrap;html=1;align=center;" parent="1" vertex="1">
          <mxGeometry x="930" y="1175" width="100" height="40" as="geometry" />
        </mxCell>
        <mxCell id="2NnWpPEPsr4nT74Myyg--1" value="Unary relation&amp;nbsp;" style="text;html=1;align=center;verticalAlign=middle;resizable=0;points=[];autosize=1;strokeColor=none;fillColor=none;" vertex="1" parent="1">
          <mxGeometry y="1448" width="100" height="30" as="geometry" />
        </mxCell>
        <mxCell id="2NnWpPEPsr4nT74Myyg--2" value="KARYAWAN" style="whiteSpace=wrap;html=1;align=center;" vertex="1" parent="1">
          <mxGeometry y="1478" width="100" height="40" as="geometry" />
        </mxCell>
        <mxCell id="2NnWpPEPsr4nT74Myyg--3" value="Bekerja_untuk" style="shape=rhombus;perimeter=rhombusPerimeter;whiteSpace=wrap;html=1;align=center;" vertex="1" parent="1">
          <mxGeometry y="1580" width="120" height="60" as="geometry" />
        </mxCell>
        <mxCell id="2NnWpPEPsr4nT74Myyg--4" value="" style="endArrow=none;html=1;rounded=0;entryX=0;entryY=0.5;entryDx=0;entryDy=0;exitX=0;exitY=0.5;exitDx=0;exitDy=0;" edge="1" parent="1" source="2NnWpPEPsr4nT74Myyg--3" target="2NnWpPEPsr4nT74Myyg--2">
          <mxGeometry width="50" height="50" relative="1" as="geometry">
            <mxPoint x="-90" y="1600" as="sourcePoint" />
            <mxPoint x="-40" y="1550" as="targetPoint" />
            <Array as="points">
              <mxPoint x="-40" y="1610" />
              <mxPoint x="-40" y="1500" />
            </Array>
          </mxGeometry>
        </mxCell>
        <mxCell id="2NnWpPEPsr4nT74Myyg--5" value="" style="endArrow=none;html=1;rounded=0;exitX=1;exitY=0.5;exitDx=0;exitDy=0;" edge="1" parent="1" source="2NnWpPEPsr4nT74Myyg--3">
          <mxGeometry width="50" height="50" relative="1" as="geometry">
            <mxPoint x="100" y="1580" as="sourcePoint" />
            <mxPoint x="100" y="1498" as="targetPoint" />
            <Array as="points">
              <mxPoint x="140" y="1610" />
              <mxPoint x="140" y="1550" />
              <mxPoint x="140" y="1500" />
            </Array>
          </mxGeometry>
        </mxCell>
        <mxCell id="2NnWpPEPsr4nT74Myyg--6" value="DOKTER" style="whiteSpace=wrap;html=1;align=center;" vertex="1" parent="1">
          <mxGeometry x="-40" y="1720" width="100" height="40" as="geometry" />
        </mxCell>
        <mxCell id="2NnWpPEPsr4nT74Myyg--7" value="PASIEN" style="whiteSpace=wrap;html=1;align=center;" vertex="1" parent="1">
          <mxGeometry x="-40" y="1840" width="100" height="40" as="geometry" />
        </mxCell>
        <mxCell id="2NnWpPEPsr4nT74Myyg--8" value="OBAT" style="whiteSpace=wrap;html=1;align=center;" vertex="1" parent="1">
          <mxGeometry x="230" y="1790" width="100" height="40" as="geometry" />
        </mxCell>
        <mxCell id="2NnWpPEPsr4nT74Myyg--9" value="Meresepkan" style="shape=rhombus;perimeter=rhombusPerimeter;whiteSpace=wrap;html=1;align=center;" vertex="1" parent="1">
          <mxGeometry x="80" y="1780" width="120" height="60" as="geometry" />
        </mxCell>
        <mxCell id="2NnWpPEPsr4nT74Myyg--10" value="" style="endArrow=none;html=1;rounded=0;exitX=1;exitY=0.5;exitDx=0;exitDy=0;entryX=0.219;entryY=0.244;entryDx=0;entryDy=0;entryPerimeter=0;" edge="1" parent="1" source="2NnWpPEPsr4nT74Myyg--6" target="2NnWpPEPsr4nT74Myyg--9">
          <mxGeometry width="50" height="50" relative="1" as="geometry">
            <mxPoint x="70" y="1800" as="sourcePoint" />
            <mxPoint x="120" y="1750" as="targetPoint" />
          </mxGeometry>
        </mxCell>
        <mxCell id="2NnWpPEPsr4nT74Myyg--11" value="" style="endArrow=none;html=1;rounded=0;exitX=1;exitY=0.5;exitDx=0;exitDy=0;" edge="1" parent="1" source="2NnWpPEPsr4nT74Myyg--7" target="2NnWpPEPsr4nT74Myyg--9">
          <mxGeometry width="50" height="50" relative="1" as="geometry">
            <mxPoint x="90" y="1900" as="sourcePoint" />
            <mxPoint x="140" y="1850" as="targetPoint" />
          </mxGeometry>
        </mxCell>
        <mxCell id="2NnWpPEPsr4nT74Myyg--12" value="" style="endArrow=none;html=1;rounded=0;exitX=1;exitY=0.5;exitDx=0;exitDy=0;entryX=0;entryY=0.5;entryDx=0;entryDy=0;" edge="1" parent="1" source="2NnWpPEPsr4nT74Myyg--9" target="2NnWpPEPsr4nT74Myyg--8">
          <mxGeometry width="50" height="50" relative="1" as="geometry">
            <mxPoint x="170" y="1920" as="sourcePoint" />
            <mxPoint x="220" y="1870" as="targetPoint" />
          </mxGeometry>
        </mxCell>
        <mxCell id="2NnWpPEPsr4nT74Myyg--13" value="N-aray" style="text;html=1;align=center;verticalAlign=middle;resizable=0;points=[];autosize=1;strokeColor=none;fillColor=none;" vertex="1" parent="1">
          <mxGeometry x="-30" y="1698" width="60" height="30" as="geometry" />
        </mxCell>
        <mxCell id="2NnWpPEPsr4nT74Myyg--14" value="Redudant relation&amp;nbsp;" style="text;html=1;align=center;verticalAlign=middle;resizable=0;points=[];autosize=1;strokeColor=none;fillColor=none;" vertex="1" parent="1">
          <mxGeometry x="-90" y="1980" width="120" height="30" as="geometry" />
        </mxCell>
        <mxCell id="2NnWpPEPsr4nT74Myyg--15" value="PEGAWAI" style="whiteSpace=wrap;html=1;align=center;" vertex="1" parent="1">
          <mxGeometry x="-80" y="2010" width="100" height="40" as="geometry" />
        </mxCell>
        <mxCell id="2NnWpPEPsr4nT74Myyg--16" value="DEPARTEMEN" style="whiteSpace=wrap;html=1;align=center;" vertex="1" parent="1">
          <mxGeometry x="-80" y="2200" width="100" height="40" as="geometry" />
        </mxCell>
        <mxCell id="2NnWpPEPsr4nT74Myyg--17" value="Bekerja_untuk" style="shape=rhombus;perimeter=rhombusPerimeter;whiteSpace=wrap;html=1;align=center;" vertex="1" parent="1">
          <mxGeometry y="2090" width="120" height="60" as="geometry" />
        </mxCell>
        <mxCell id="2NnWpPEPsr4nT74Myyg--18" value="Memimpin" style="shape=rhombus;perimeter=rhombusPerimeter;whiteSpace=wrap;html=1;align=center;" vertex="1" parent="1">
          <mxGeometry x="-200" y="2090" width="120" height="60" as="geometry" />
        </mxCell>
        <mxCell id="2NnWpPEPsr4nT74Myyg--19" value="" style="endArrow=none;html=1;rounded=0;entryX=0;entryY=1;entryDx=0;entryDy=0;exitX=0.5;exitY=0;exitDx=0;exitDy=0;" edge="1" parent="1" source="2NnWpPEPsr4nT74Myyg--18" target="2NnWpPEPsr4nT74Myyg--15">
          <mxGeometry width="50" height="50" relative="1" as="geometry">
            <mxPoint x="-110" y="2110" as="sourcePoint" />
            <mxPoint x="-60" y="2060" as="targetPoint" />
          </mxGeometry>
        </mxCell>
        <mxCell id="2NnWpPEPsr4nT74Myyg--26" value="1,0" style="edgeLabel;html=1;align=center;verticalAlign=middle;resizable=0;points=[];rotation=-35;" vertex="1" connectable="0" parent="2NnWpPEPsr4nT74Myyg--19">
          <mxGeometry x="0.1817" y="1" relative="1" as="geometry">
            <mxPoint as="offset" />
          </mxGeometry>
        </mxCell>
        <mxCell id="2NnWpPEPsr4nT74Myyg--20" value="" style="endArrow=none;html=1;rounded=0;exitX=1;exitY=1;exitDx=0;exitDy=0;entryX=0.5;entryY=0;entryDx=0;entryDy=0;" edge="1" parent="1" source="2NnWpPEPsr4nT74Myyg--15" target="2NnWpPEPsr4nT74Myyg--17">
          <mxGeometry width="50" height="50" relative="1" as="geometry">
            <mxPoint x="50" y="2100" as="sourcePoint" />
            <mxPoint x="100" y="2050" as="targetPoint" />
          </mxGeometry>
        </mxCell>
        <mxCell id="2NnWpPEPsr4nT74Myyg--23" value="1,1" style="edgeLabel;html=1;align=center;verticalAlign=middle;resizable=0;points=[];rotation=45;" vertex="1" connectable="0" parent="2NnWpPEPsr4nT74Myyg--20">
          <mxGeometry x="-0.2875" y="-2" relative="1" as="geometry">
            <mxPoint as="offset" />
          </mxGeometry>
        </mxCell>
        <mxCell id="2NnWpPEPsr4nT74Myyg--21" value="" style="endArrow=none;html=1;rounded=0;exitX=1;exitY=0;exitDx=0;exitDy=0;entryX=0.5;entryY=1;entryDx=0;entryDy=0;" edge="1" parent="1" source="2NnWpPEPsr4nT74Myyg--16" target="2NnWpPEPsr4nT74Myyg--17">
          <mxGeometry width="50" height="50" relative="1" as="geometry">
            <mxPoint x="30" y="2230" as="sourcePoint" />
            <mxPoint x="80" y="2180" as="targetPoint" />
          </mxGeometry>
        </mxCell>
        <mxCell id="2NnWpPEPsr4nT74Myyg--25" value="1,N" style="edgeLabel;html=1;align=center;verticalAlign=middle;resizable=0;points=[];rotation=-41;" vertex="1" connectable="0" parent="2NnWpPEPsr4nT74Myyg--21">
          <mxGeometry x="0.0116" relative="1" as="geometry">
            <mxPoint as="offset" />
          </mxGeometry>
        </mxCell>
        <mxCell id="2NnWpPEPsr4nT74Myyg--22" value="" style="endArrow=none;html=1;rounded=0;exitX=-0.024;exitY=-0.088;exitDx=0;exitDy=0;exitPerimeter=0;entryX=0.5;entryY=1;entryDx=0;entryDy=0;" edge="1" parent="1" source="2NnWpPEPsr4nT74Myyg--16" target="2NnWpPEPsr4nT74Myyg--18">
          <mxGeometry width="50" height="50" relative="1" as="geometry">
            <mxPoint x="-160" y="2200" as="sourcePoint" />
            <mxPoint x="-110" y="2150" as="targetPoint" />
          </mxGeometry>
        </mxCell>
        <mxCell id="2NnWpPEPsr4nT74Myyg--24" value="1,1" style="edgeLabel;html=1;align=center;verticalAlign=middle;resizable=0;points=[];rotation=41;" vertex="1" connectable="0" parent="2NnWpPEPsr4nT74Myyg--22">
          <mxGeometry x="0.2862" y="1" relative="1" as="geometry">
            <mxPoint as="offset" />
          </mxGeometry>
        </mxCell>
      </root>
    </mxGraphModel>
  </diagram>
</mxfile>
